<svg xmlns="http://www.w3.org/2000/svg" viewBox="0 0 539.8 483.2"><defs><style>.cls-1{opacity:0.89;}.cls-2{fill:#5d5e50;}.cls-3{fill:none;}.cls-4{fill:#727266;}</style></defs><g id="Layer_2" data-name="Layer 2"><g id="Layer_1-2" data-name="Layer 1"><g class="cls-1"><path class="cls-2" d="M84.05,453.33c-7.24-10.25-7.85-9.64-7.85-15.06s20.92-65.14,37.37-27.12c6.34,14.65,16.88,38.56,28.93,57.26,4.06,6.31,5.19,10.92,5.55,14.47H306.14c.29-1.12.58-2.34.87-3.62,5.85-24.72-3-31.32-10.24-53.64s1.79-8.43,15.05-34.94,4.23-28.93,3-59.06-2.4-31.33,5.42-39.17A381.36,381.36,0,0,0,348,262.32c10.85-13.26.61-26.52,16.88-32.54s6.63,3,15.66,31.32,1.8,28.27,4.83,44.59,15.06,34.94,30.74,71.1,36.16,31.93,42.79,50,7.62,35.71,9.42,44.14c1,4.76-.07,8.94-.25,11.91h69.73c6.88-11.58-7.55-34.81-9-49.42-1.8-18.09-6-28.31-18.09-40.38s-3.62-10.86-8.43-35.55-40.38-74.72-45.8-91.6-13.86-54.25-19.89-66.9-7.61-7.53,3.62-24.11c12.65-18.67-3-19.89-6-29.53s7.24-20.49,15.66-27.73S445.6,102,445.6,102C433.55,44.72,395,5.55,375.08.74s-25.3,25.91-39.17,31.33-29.53,17.48-44,22.29S270.23,74.85,256.36,85.1s-9,10.25-15.66,14.47-58.45,42.18-65.08,45.19-15.21,3.26-41,6c-30.58,3.28-34.83,4.42-66.29,25.91-39.62,27.08-53.62,61-55.44,69.91-14.34,69.91,25.91,91,20.49,110.88C25.89,385,1.87,479.17,1.87,479.17c-1.15,1.3-.88,2.54-1.6,3.66H95.73C97.42,474,89.93,461.67,84.05,453.33Zm88.58-132s25.91,1.21,36.16-5.42,13.86-10.13,18.09-14.4,6-18.14,9-13.3,3.62,25.3-8.43,44.58-8.06,10.41-13.86,40.38c-5,26.05,21.1,48.21,21.69,54.25s1.79,7.24-4.84,5.42-15.66-1.22-19.88-18.09S195.53,372,187.69,363s-10.86-2.52-15.06-15.06A42.08,42.08,0,0,1,172.63,321.35Z"></path><path class="cls-3" d="M84.05,453.33c-7.24-10.25-7.85-9.64-7.85-15.06s20.92-65.14,37.37-27.12c6.34,14.65,16.88,38.56,28.93,57.26,4.06,6.31,5.19,10.92,5.55,14.47H306.14c.29-1.12.58-2.34.87-3.62,5.85-24.72-3-31.32-10.24-53.64s1.79-8.43,15.05-34.94,4.23-28.93,3-59.06-2.4-31.33,5.42-39.17A381.36,381.36,0,0,0,348,262.32c10.85-13.26.61-26.52,16.88-32.54s6.63,3,15.66,31.32,1.8,28.27,4.83,44.59,15.06,34.94,30.74,71.1,36.16,31.93,42.79,50,7.62,35.71,9.42,44.14c1,4.76-.07,8.94-.25,11.91h69.73c6.88-11.58-7.55-34.81-9-49.42-1.8-18.09-6-28.31-18.09-40.38s-3.62-10.86-8.43-35.55-40.38-74.72-45.8-91.6-13.86-54.25-19.89-66.9-7.61-7.53,3.62-24.11c12.65-18.67-3-19.89-6-29.53s7.24-20.49,15.66-27.73S445.6,102,445.6,102C433.55,44.72,395,5.55,375.08.74s-25.3,25.91-39.17,31.33-29.53,17.48-44,22.29S270.23,74.85,256.36,85.1s-9,10.25-15.66,14.47-58.45,42.18-65.08,45.19-15.21,3.26-41,6c-30.58,3.28-34.83,4.42-66.29,25.91-39.62,27.08-53.62,61-55.44,69.91-14.34,69.91,25.91,91,20.49,110.88C25.89,385,1.87,479.17,1.87,479.17c-1.15,1.3-.88,2.54-1.6,3.66H95.73C97.42,474,89.93,461.67,84.05,453.33Zm88.58-132s25.91,1.21,36.16-5.42,13.86-10.13,18.09-14.4,6-18.14,9-13.3,3.62,25.3-8.43,44.58-8.06,10.41-13.86,40.38c-5,26.05,21.1,48.21,21.69,54.25s1.79,7.24-4.84,5.42-15.66-1.22-19.88-18.09S195.53,372,187.69,363s-10.86-2.52-15.06-15.06A42.08,42.08,0,0,1,172.63,321.35Z"></path><path class="cls-4" d="M172.75,321.4c.06-.19,0-.11-.19.41l-.06.38C172.58,321.93,172.66,321.66,172.75,321.4Z"></path><path class="cls-4" d="M171.62,324.86c-.11.64-.21,1.37-.06,1,.08-.62.12-.77.21-1.45a2.73,2.73,0,0,1,.26-.82c0-.19.24-.8.29-1.09a13.68,13.68,0,0,0-.67,2.44C171.6,325.11,171.62,324.91,171.62,324.86Z"></path><path class="cls-4" d="M192.05,369.33l-.18-.29Z"></path><path class="cls-4" d="M205.63,399.27a1.85,1.85,0,0,0-.14-.34C205.58,399.15,205.65,399.33,205.63,399.27Z"></path><path class="cls-4" d="M207.4,404.61l-.1-.32A3.12,3.12,0,0,0,207.4,404.61Z"></path><path class="cls-4" d="M192.05,369.33c.15.25.3.51.43.76A5,5,0,0,0,192.05,369.33Z"></path><path class="cls-4" d="M170.75,332.12c0-.18,0-.33,0-.47,0,.15,0,.29,0,.44Z"></path><polygon class="cls-4" points="182.51 358.65 182.28 358.53 182.07 358.45 182.51 358.65"></polygon><path class="cls-4" d="M174,351.83a1,1,0,0,0,.28.35,2.14,2.14,0,0,1-.29-.47S174,351.75,174,351.83Z"></path><path class="cls-4" d="M170.45,334.61v0Z"></path><path class="cls-4" d="M188.31,364l.05.09Z"></path><path class="cls-4" d="M185.56,321.47s0,0,0,0S185.48,321.47,185.56,321.47Z"></path><path class="cls-4" d="M172.63,321.34h.18l0,0Z"></path><path class="cls-4" d="M210.23,414.49v-.05C210.14,414.18,210.18,414.33,210.23,414.49Z"></path><path class="cls-4" d="M213.23,379.41c-.07,1.06,0-1.74-.12-.13C213.14,379.13,213.17,380.73,213.23,379.41Z"></path><path class="cls-4" d="M170.73,332.41l0,.45Z"></path><path class="cls-4" d="M213.11,379.28h0v0Z"></path><path class="cls-4" d="M224.81,431.79a1.38,1.38,0,0,0-.23-.09S224.63,431.73,224.81,431.79Z"></path><path class="cls-4" d="M212.18,420.24c0,.14.11.27.17.41C212.28,420.49,212.22,420.36,212.18,420.24Z"></path><path class="cls-4" d="M233.79,433.75a2.63,2.63,0,0,0,.67,0h-.11A2,2,0,0,1,233.79,433.75Z"></path><path class="cls-4" d="M234.84,425.61l.07.17.14.27Z"></path><path class="cls-4" d="M213.06,313.37a3.33,3.33,0,0,1-.39.21C212.81,313.53,211.66,314.34,213.06,313.37Z"></path><path class="cls-4" d="M170.72,332.13a1.8,1.8,0,0,1,0,.28c0-.11,0-.21,0-.32S170.73,332.06,170.72,332.13Z"></path><path class="cls-4" d="M234.2,433.34a1.26,1.26,0,0,0,1.13-.34A1.21,1.21,0,0,1,234.2,433.34Z"></path><path class="cls-4" d="M233.65,319.5l.12-.33Z"></path><path class="cls-4" d="M235.17,428.74l-.06-.86,0-.17Z"></path><path class="cls-4" d="M212.67,313.58Z"></path><path class="cls-4" d="M203.94,318.52c1.38-.48.62-.31.89-.45,1.61-.68.77-.25,1.33-.45.25-.11.49-.2.71-.31l.6-.37,1.09-.64c.06,0,.2-.09.05,0,1-.63,2.84-1.84,3.9-2.64l.16-.09c-.2.09-.25.08-.23,0a12,12,0,0,1,1.2-.82,3.39,3.39,0,0,0-.49.37l.54-.4c.55-.29-.75.55-.72.59l3.14-2.29c.22-.07-1.91,1.4-.77.66l-1.3.89c1-.6-.79.54.18,0,1.7-1.18,1.87-1.36,3.53-2.59.35-.31-.15.05.2-.26,2.26-1.86,1.92-1.3,3.52-2.76a15.1,15.1,0,0,1,1.67-1.6l-.34.41c1.48-1.36.77-.85,2.32-2.28-.24.29-1.12,1.12-.89.91a18.21,18.21,0,0,0,1.41-1.43l.2-.1a16.21,16.21,0,0,0,2.22-2.53,23.25,23.25,0,0,0,1.64-3.13c0,.13-.18.51.07,0,1.22-2.72,2.23-6,3.59-8.46a5.27,5.27,0,0,1,.54-.89c.15-.19.33-.27.15-.11.76-.53,0-.08.37-.34a.52.52,0,0,1,.45,0s0,0-.13,0c.35,0,.77.49,1.07,1l.45.88.33,1a19.56,19.56,0,0,1,.49,2c.11.65.16,1.26.22,1.78l-.07-.4c.1.79.16,1.24.21,1.68a11.69,11.69,0,0,1,.12,1.61,1.32,1.32,0,0,0,0-.28,47.33,47.33,0,0,1-.67,10,12.19,12.19,0,0,1-.28,1.93,11.35,11.35,0,0,0-.29,1.72c-.43,1.95-.39,1.38-1.09,4.1-.2.73-.25,1.09-.51,2h-.07l-.31,1.23-.27.62-.28.82a3.22,3.22,0,0,1,.28-.63c-.23.65-.52,1.42-.77,2l-.32.77c-.08.19-.13.31-.14.32-.39,1-.82,2-1.23,3,0-.08.21-.58.37-1-.63,1.61-.18.26-.76,1.73.1-.18,0,.13,0,.16-.39.69-1.19,2.28-1.77,3.47l.07-.25c-1.17,2.08-2.49,4.38-3.95,6.65.53-.81.47-.58.06.09l-.22.23c-.24.45.46-.68-.06.23s-.43.53-.13,0l-.64,1c0,.05.09-.19.11-.27-.24.45-1.19,1.75-1.51,2.4l-.06,0c-1.44,2.28-2.07,3.33-3.17,5.24,0,.06-.38.83-.64,1.43a22.13,22.13,0,0,0-1.83,5.05c-.27,1.35,0,.41-.14,1-.09.09-.44,2-.29,1-.43,2.3-.52,2.94-1,5.85.07-.31.14-.66.13-.48a6.2,6.2,0,0,1-.24,1.12l0-.14c-.48,3.27-1.46,7.49-1.84,10.1l0-.15-.45,2.69c-.25,1.24.1-.74-.11.16-.24,1.45-.4,2.62-.56,3.71a27.54,27.54,0,0,0-.21,3.36,23.16,23.16,0,0,0,.1,4.38c.09.88.19,1.77.34,2.6s.26,1.6.39,2.22v-.15a9.54,9.54,0,0,1,.25,1.26c0-.07-.12-.71,0-.31a62.77,62.77,0,0,0,6.47,15.9c1,1.81.75.93,2.06,3.21l-.45-.59c2.28,3.53,4.78,7.15,7.29,10.42a5.17,5.17,0,0,1-.42-.51c.24.37.72,1,1.14,1.57l.55.71a3.54,3.54,0,0,0,.26.3c.37.51.06.14.27.47.5.71,1.33,1.73,1.55,2.14,0,.07-.15-.2-.24-.32.35.44,1.46,2.18,1.2,1.7a8,8,0,0,1,1.57,3.71c.14.8.3,2.63.4,2.87-.06-.05,0,.63,0,1.4a1.43,1.43,0,0,1-.29,1,1.31,1.31,0,0,1-.77.27c.31,0-.8-.05-.43-.08-1.07-.09-2.06-.36-1.88-.26-1-.29-2-.55-2.88-.75a19.07,19.07,0,0,1-2.25-.53,33.25,33.25,0,0,1-4.6-1.21,17,17,0,0,1-4-2.1,13.7,13.7,0,0,1,1.4.87,6.45,6.45,0,0,0,1.32.64,16.6,16.6,0,0,1-3.06-1.84,13.9,13.9,0,0,1-2.51-2.52c-.41-.59.25.32.45.47a23.26,23.26,0,0,1-3.88-6.83s.12.26.21.49a6.53,6.53,0,0,0-.4-1l.17.45c.23.75-.82-1.79-.82-1.88.34.77-.65-2.39-.14-1.15-.1-.31-.23-.69-.24-.62-.12-.46-.15-.61,0-.15-.5-1.69-.37-1.09-.78-2.63,0,0,.11.31.17.46-.25-.77-.47-1.56-.85-2.86,0,.07,0-.08.12.31-.65-2.25-1.24-3.78-2-6.23.31.69-.25-.83-.23-1l-.46-1.3.14.54c-.4-1.14-.76-2.14-1.11-3.12l.33.84-.78-2.12.41,1.21a8.5,8.5,0,0,1-.57-1.36c.11.3-.4-1.14-.59-1.74h0c-.23-.55-.47-1.11-.77-1.95-.06-.23.14.14.1,0-.26-.54-1-2.62-1.39-3.29.11.22.15.22.13.14l-.23-.44c-.19-.52-.22-.6-.15-.53-.63-1.55.12.53-.61-1.32l.18.36c-.76-1.85-1.52-3.55-2.26-5.23-.15-.53.67,1.46.47.87-1.08-2.43-2.33-5-3.46-7.28l.21.44c-.26-.27-.8-1.74-1.44-2.87.16.27.25.34.2.27-.81-1.56-1.69-3.18-3.06-5.46l.19.28c-.47-.93-1.42-2.34-2-3.3-.2-.27-.57-.79-.38-.45a27.93,27.93,0,0,0-6.37-7.2c.29.22.71.52.48.34a17,17,0,0,0-2.18-1.47c.17.13.29.2.73.53l-.64-.37-.86-.45c1,.54,0-.09-.42-.32.07,0-.1,0-.06,0-1.21-.65-.25,0-1.93-.82l.1,0a9.43,9.43,0,0,1-1.85-.93c-.23-.22.62.39.7.34a6.64,6.64,0,0,1-2.34-1.85l.52.57.58.49a14.65,14.65,0,0,1-1.29-1.4l.05.05a12,12,0,0,1-.93-1.49,3.73,3.73,0,0,0,.2.4,20.51,20.51,0,0,1-2-4c.67,1.59.15.25.25.35a4.79,4.79,0,0,1-.27-.9c-.35-.77-.41-1.34-.82-2.45,0,0-.25-.85-.15-.68-.31-1.05,0,.25,0,.17a28.38,28.38,0,0,1-.66-2.82c-.17-1.06-.38-2.21-.54-3.41a43.56,43.56,0,0,1-.41-4.38c0-.65.06.54.08.54,0-1.06,0-1.84,0-2.84,0,.2,0,0,.07-.3a11.62,11.62,0,0,1,.06-1.58c0,.19,0,.44,0,.8,0-.94.1-1.86.21-2.83.07-.25,0,.59,0,.93.09-1.08.37-2.8.39-3.13l-.15.68c.07-.39.08-.19,0,.1a7.09,7.09,0,0,1-.24,1.38l.08-.69a24,24,0,0,0-.41,4.15l0-.59v1.43c0,.3-.09.51-.07-.18-.08,1,0,.89,0,1.74,0,.1,0,.06,0,0,0,.32,0,.65,0,1,0-.2-.07.16-.06-.44,0,1.76.17,2.82.19,3.48l0-.14a11.37,11.37,0,0,0,.37,2l0,1.23.1.23a2.79,2.79,0,0,1,.07.65c.25.91,0-.16.15.36s.3,1.41.46,2.11a9,9,0,0,1,.35,1.4c.17.4-.29-1.11.11.11a15.52,15.52,0,0,0,.78,2.47c-.17-.3-.5-1.29-.16-.23a12.75,12.75,0,0,1,.52,1.34c.22.53.44,1.09.63,1.52a21.21,21.21,0,0,0,2,3,2.93,2.93,0,0,0,.28.34,9.63,9.63,0,0,0,.88.8,13.54,13.54,0,0,0,2.44,1.36h0a15.85,15.85,0,0,1,2.61,1.15c-.06,0-.23-.06-.76-.31l.9.48a6.9,6.9,0,0,1,1.05.6l-.24-.09a16.88,16.88,0,0,1,3.43,2.84c.11,0-.85-1.12.44.22,0,.07,0,.15-.3-.2.11.12.4.4.61.64l-.53-.51c.52.6.31.28.74.75,0,0,.3.37.21.33a6.61,6.61,0,0,0-.54-.6,11.92,11.92,0,0,1,1.16,1.47c0-.06,0,0,.37.38.85,1.06.25.39.7,1a9.19,9.19,0,0,0,.75,1,4.43,4.43,0,0,1,.32.54c.42.57,1.76,2.78,1.39,2.07l-.09-.15.07.09h0c1.26,1.94,2.38,4.18,3.46,6.2h0c.65,1.2,1.38,2.72,1.86,3.57.18.37.37.88.28.74.46.94.53,1,1.14,2.42a7.62,7.62,0,0,1-.48-1c.57,1.24.67,1.53,1.31,2.84-.25-.43.36,1,.64,1.55l-.36-.89c.3.67.56,1.25.81,1.84l-.2-.29c1,2.59,2.09,4.57,2.74,6.59.32.67-.54-1.41-.24-.82.48,1.19.87,2.47,1,2.84.58,1.66.68,1.49,1.29,3.23-.06-.23-.07-.46.41.82s.44,1.52.15.76c-.1-.29-.15-.43-.14-.42-.14-.39-.34-.89-.19-.41l.08.15c.19.61.79,2.26.62,1.89.34.9.17.37-.06-.3.53,1.56.82,2.43,1.36,4-.07-.26-.13-.5,0-.25.74,2.37.38,1,.9,2.63a5.19,5.19,0,0,0,.36,1.3c.27,1,0,.23-.14-.16.49,1.46.78,2.77,1,3.62l-.25-.78c.14.47.27.85.36,1.24l-.07-.46a6.83,6.83,0,0,1,.2.85c.15.46,0-.39.27.54.14.62.52,1.87.52,2.1-.5-1.94,0,.22-.45-1.41.09.32.19.7.31,1.16,0,.08,0-.06-.07-.18.46,1.86.31.83.85,2.75-.1-.24,0,.47.17.77-.24-.77-.08-.38.21.3.41,1.21.5,1.3.72,1.93l-.25-.72c.13.23.32.84.73,1.63,0,.08-.36-.72-.24-.43a29,29,0,0,0,1.64,3.22c.3.57,0,.09.25.59a18.2,18.2,0,0,0,2.06,2.6c-.29-.38-.35-.43.47.39a18.91,18.91,0,0,1-1.78-2l.54.67.61.61a13.62,13.62,0,0,1-1.39-1.69c.52.64.46.58.26.24a6.44,6.44,0,0,0,1,1.31c.4.4.78.85,1.27,1.26l-.11.07a14.84,14.84,0,0,0,5.09,3l-.73-.33c.31.11,1.43.56,2.21.78-.08,0,.4.16.73.28,0,0,1.77.44,2,.41l1.08.28c2,.45,2.24.4,4.1.9-.57-.1.27.15-1-.15a7.66,7.66,0,0,0,1.2.28,12.22,12.22,0,0,0,2.38.36,1.81,1.81,0,0,0,.39,0,1.88,1.88,0,0,0,.7-.29c.07-.05,0,0,0,0a1.49,1.49,0,0,0,.29-.46c.06-.2.09-.32,0,0a3.64,3.64,0,0,0,.16-1.74c-.06-.64-.15-1.32-.24-2s-.16-1.33-.23-1.93a4.78,4.78,0,0,0-.22-.85c-.09-.26-.17-.49-.26-.69a31.31,31.31,0,0,0-2.35-3.7c.06.06,0,0,.15.19-1-1.45-.71-.82-1.86-2.45-.56-.86.66.83.3.3-.06-.3-1.45-1.93-2.19-3.05l.2.26c-.57-.86-1.52-2-2.49-3.36,0,0,.06.06,0,0-.72-.89-2-2.66-2.88-4,.32.39.43.59.3.31-.4-.6,0,.23-.76-1-.23-.41-.77-1.3-.8-1.44l.74,1.14c-.32-.62-.95-1.48-1.31-2.1l.07.06c-1.09-1.77-1.17-1.76-2.25-3.73l.09.22c-.65-1.05-.47-.92-1.06-2l-.1-.37c-.39-.71-1.32-2.51-1.88-3.85.35.75,1.1,2.27,1.59,3.2-.35-.72-1.16-2.42-1.35-2.83l.43.95c-.24-.43-.47-.95-.74-1.54s-.55-1.25-.82-2a10.88,10.88,0,0,0-.61-2,24.76,24.76,0,0,1-.84-3.08,37.72,37.72,0,0,1-1.26-8.75c-.07,1.16-.05-1-.16-.76,0-.76,0-1,0-1.12a22.5,22.5,0,0,1,.2-2.31c.08-.54,0,.73,0,.66.16-1.67.12-.7.24-1.79a5.14,5.14,0,0,1,.18-1.52l-.26,1.32c.3-2.32.39-2,.78-4.32l-.1.75c.2-1.2.84-4.41.94-5.6,0-.21.14-.48,0,0,.54-2.85,1-6.38,1.46-8.6v.23c.08-.54.1-.94.25-1.61,0,0,0,.22,0,0s.19-1.43.33-2.13l-.07.61a55.87,55.87,0,0,1,1.42-6.54c.07,0,.86-2,1.44-3v0c1.55-2.87,2.79-4.83,4.38-7.43,1.09-1.56,3.5-5.39,5-8-.25.4,0-.1.24-.57.37-.62.85-1.79.87-1.65l-.11.23a26.66,26.66,0,0,0,1.45-2.82l0-.21a71.4,71.4,0,0,0,3.42-8.89c.2-.7.45-1.56.59-2.27l0,.05c.25-1,.45-1.71.64-2.5s.32-1.66.56-2.88l-.06.51c.29-1.38.12-1.78.32-3.06l.14-.37c.16-1.22.28-2.44.39-3.67a34.49,34.49,0,0,0,.07-3.66,1.82,1.82,0,0,1,.05.51c0-.58,0-1.7-.05-2.62s-.13-1.64-.18-1.43a17.47,17.47,0,0,0-.64-3.8l.1.19a8.87,8.87,0,0,0-.4-1.14,7.74,7.74,0,0,0-.61-1.41c-.16-.34-.1-.31.11.14a3.41,3.41,0,0,0-.59-1,4.41,4.41,0,0,0-.37-.35,1.15,1.15,0,0,0-.87-.28,1.08,1.08,0,0,1,.64.07,1,1,0,0,0-.84-.05,1.3,1.3,0,0,0-.38.25,2.37,2.37,0,0,0-.47.59c-.49.65-1.16,2.12-1.28,2.27s-.27.82-.55,1.51c-.06.09,0-.17.08-.3-.81,1.95-1.07,3-1.67,4.28a.63.63,0,0,0-.13.21c.65-1.54,1.12-2.81,1.08-2.69s-.55,1.24-.22.21a40,40,0,0,1-1.54,4l-.08.15.05-.13-.35.75-.53.95a16.88,16.88,0,0,1-1.24,1.79c.08,0-.51.63.07.06l.35-.45.15-.23,0,0a12.68,12.68,0,0,0,.87-1.42,8.05,8.05,0,0,1-.94,1.56,7.19,7.19,0,0,1-.52.77c-.68.62-2,1.84-2.2,2-1.43,1.48-3.52,3.32-4.45,4.22a4.73,4.73,0,0,1-.72.54c.26-.22.57-.48.69-.61-.87.78-2.69,2.18-2.87,2.4-1.2.86.62-.55-1,.67l.21-.18c-1.64,1.14-2.94,2.11-4.3,3.09-.68.49-1.37,1-2.14,1.49a19.76,19.76,0,0,1-2.58,1.53l.47-.23a29.56,29.56,0,0,1-7.15,2.77c-1.25.31-2.51.62-3.77.83s-2.52.4-3.75.55c-1.4.18-1.55.21-2.41.35l-.31,0c-.48.08-1,.16-1.46.22-2.08.22-3.62.14-6.26.34l.34,0c-1,0-3,.13-2.86.07a3.32,3.32,0,0,1-.68,0l0,0-2.34.08c-1.81,0,.28-.12-2.36-.15a24,24,0,0,0-2.43,0,9,9,0,0,1,1,.08h-.9c-.17.08-.86.17,1.35.29l1.54,0,.5,0h-1.3a12.24,12.24,0,0,0,1.72,0,4,4,0,0,0,.65.05l1.51-.09c.19,0-.67.07.34.09.71-.06-.68-.07.49-.12a8,8,0,0,0,1.39,0c.12,0-.06,0-.4.06.77,0,2-.08,2.43-.14.77,0,2.6-.14,2.53,0,.24,0,1.35-.14,2.06-.21-1.29.21,2.64-.2,2.31-.07.94-.19,3.44-.4,5.11-.73a2.21,2.21,0,0,1-.43.08c.95-.13,1.23-.13,1.84-.23.1-.1,1.56-.39,2.34-.58,1.16-.18-.67.24-.3.22-.07,0,2-.52,1.57-.48a11.69,11.69,0,0,1,1.22-.2c.13-.12.81-.23,1.5-.52a10.5,10.5,0,0,0,1.7-.47C205.13,318.05,204,318.54,203.94,318.52Zm25.75-21.27h0c-.12.27-.23.49-.29.64C229.46,297.75,229.54,297.57,229.69,297.25Zm1.09-2.63-.46,1.15c-.06.08,0,0,.08-.29C230.35,295.63,230.61,295,230.78,294.62Zm-2.91,5.24c.23-.38.32-.5.35-.55-.1.18-.23.39-.39.66l0,0Z"></path><path class="cls-4" d="M227.49,300.55l-.11.15c.06-.07.12-.13.17-.2l.07-.14Z"></path><path class="cls-4" d="M191.84,369l0,.06-.05-.12Z"></path><polygon class="cls-4" points="234.62 316.5 234.63 316.5 234.7 316.26 234.62 316.5"></polygon><path class="cls-4" d="M181.3,357.73l-.18-.1Z"></path><path class="cls-4" d="M175.73,354.17l-.51-.8C175.44,353.72,175.61,354,175.73,354.17Z"></path><path class="cls-4" d="M173.41,349.59l-.06-.09h0Z"></path><path class="cls-4" d="M212.41,419.76l.07.19C212.65,420.38,212.54,420.09,212.41,419.76Z"></path><path class="cls-4" d="M204.82,396.43l.31.73A3.54,3.54,0,0,0,204.82,396.43Z"></path><path class="cls-4" d="M234.05,433.33Z"></path><path class="cls-4" d="M205.51,398.23c-.14-.41-.26-.76-.38-1.07Z"></path><path class="cls-4" d="M171.25,327.54l.05-.24s0,0,0,0Z"></path><path class="cls-4" d="M171.3,327.27l0-.28C171.32,327.12,171.3,327.23,171.3,327.27Z"></path><path class="cls-4" d="M171.43,326.42l-.09.57A5.44,5.44,0,0,0,171.43,326.42Z"></path><path class="cls-4" d="M170.66,334.36l0,.07S170.67,334.36,170.66,334.36Z"></path><path class="cls-4" d="M170.7,336.43c0-.49,0-1.24,0-1.93v-.07c0,.17,0,.55,0,.95S170.67,336.2,170.7,336.43Z"></path><path class="cls-4" d="M171.7,345.07l-.37-1.71c0,.3.11.7-.07-.07C171.68,345.46,171.2,342.83,171.7,345.07Z"></path><path class="cls-4" d="M173.36,350.25c-.35-.87,0,0-.05,0C173.57,350.78,173.63,350.91,173.36,350.25Z"></path><path class="cls-4" d="M197.56,379.79l-.09-.06C197.79,380.38,197.49,379.73,197.56,379.79Z"></path><polygon class="cls-4" points="200.89 386.51 200.65 385.85 200.47 385.56 200.89 386.51"></polygon><polygon class="cls-4" points="202.26 390.74 202.14 390.44 202.6 391.56 202.26 390.74"></polygon><path class="cls-4" d="M235.48,427.24c0,.08,0,.16,0,.23C235.51,428,235.62,428.06,235.48,427.24Z"></path><path class="cls-4" d="M220,403.43a13.26,13.26,0,0,0-.74-1.42C219.51,402.58,219.79,403.15,220,403.43Z"></path><polygon class="cls-4" points="232.49 323.75 232.28 324.28 232.69 323.28 232.49 323.75"></polygon><path class="cls-4" d="M84.15,453.25c-.73-1-.33-.41,1.59,2.39.47.65.94,1.31,1.39,2C86.18,456.14,85.17,454.69,84.15,453.25Z"></path><path class="cls-4" d="M94.85,473.39A27.37,27.37,0,0,1,96,478.75c.1.66.08,1.12.1,1.25s0-.07,0-.72a23.79,23.79,0,0,0-.34-2.5,16.72,16.72,0,0,0-.42-1.93,19.63,19.63,0,0,0-.58-2c-.23-.72-.53-1.52-.94-2.51-1.26-3.16-2.48-5.4-2.17-4.91-.54-1.08-2.52-4.65-3.55-6.17A66.7,66.7,0,0,1,95,473.61C95.27,474.83,95,473.65,94.85,473.39Z"></path><path class="cls-4" d="M10.36,264.62c-.08.71-.1,1.42-.16,2.13C10.25,266.17,10.27,265.44,10.36,264.62Z"></path><path class="cls-4" d="M158.88,148.4l-2.28.27C158,148.51,159.23,148.37,158.88,148.4Z"></path><path class="cls-4" d="M190.78,135.11l-1.71,1.18Z"></path><path class="cls-4" d="M10.36,264.62l.58-5.47C11,258.77,10.64,262,10.36,264.62Z"></path><path class="cls-4" d="M59.48,483h0Z"></path><path class="cls-4" d="M33.77,350.73a11.89,11.89,0,0,1,.2,1.67c0,.5.08,1,.1,1.4A21,21,0,0,0,33.77,350.73Z"></path><path class="cls-4" d="M17.78,418.39c.39-1.52.48-2.07.6-2.66-.21.87-.49,2-.82,3.34A5.56,5.56,0,0,0,17.78,418.39Z"></path><path class="cls-4" d="M43.87,482.78h0Z"></path><path class="cls-4" d="M14.07,305.08l-.16-.62S14,304.71,14.07,305.08Z"></path><path class="cls-4" d="M111.46,407.4c0,.05,0,0,0,0C111.27,407,111.21,406.93,111.46,407.4Z"></path><path class="cls-4" d="M84,453.34l-.65-.91-.16-.18Z"></path><path class="cls-4" d="M243.35,98l-.23.19a8.18,8.18,0,0,1-.69.55A11.1,11.1,0,0,0,243.35,98Z"></path><path class="cls-4" d="M503.15,364.75c-.42-3.32,0-.63.24,1.65s.4,4.15,0-.86c.05.46-.26-1.8-.46-3.15S502.63,360.62,503.15,364.75Z"></path><path class="cls-4" d="M57.68,483h0Z"></path><path class="cls-4" d="M503.37,365.54h0l-.12-1C503.3,364.94,503.33,365.18,503.37,365.54Z"></path><path class="cls-4" d="M357.53,7.54c-.2.23-.6.65-1,1.12Z"></path><path class="cls-4" d="M270.45,71.76l1.84-2Z"></path><path class="cls-4" d="M405,22.21c1,1.09,1.32,1.49,2.68,3l-.4-.46Z"></path><path class="cls-4" d="M436.44,72.52c-.11-.29-.26-.69-.4-1l-.75-1.74C435.67,70.68,436.09,71.59,436.44,72.52Z"></path><path class="cls-4" d="M245.26,483.12l-2.76-.05C243.42,483.11,234.65,483.12,245.26,483.12Z"></path><path class="cls-4" d="M59.45,483c-.35,0-.86,0-1.77,0h2C59.83,483,59.87,483,59.45,483Z"></path><path class="cls-4" d="M407,23.71c2.12,2.35,4.13,4.81,6.09,7.29C411.44,28.92,409.27,26.23,407,23.71Z"></path><path class="cls-4" d="M384.64,302.57l-.22-2.18C384.51,301.23,384.58,302,384.64,302.57Z"></path><path class="cls-4" d="M428.48,54.57c.76,1.51,1.64,3.09,2.43,4.76l.51,1C430.49,58.37,429.48,56.47,428.48,54.57Z"></path><path class="cls-4" d="M242.48,483.07h0Z"></path><path class="cls-4" d="M180,483.2c9,0,4.25-.07,6.16-.12,10.79,0,5,.06,8.66.1l16.92-.09c.38,0,1.36,0,.21,0l29.43-.07,1.08,0c-1.34,0-1.55-.08-1.27-.11,4,0,7.51,0,9,0-2.48,0-2.69,0-3.85,0l4.24,0c1.91,0,.46,0-1.46,0h-4.33l24.26-.06c1.33.07-14.83,0-6.37.09l-9.81,0c7.5.11-6,0,.93.11l27.32,0c2.9,0-1-.05,1.95-.09,9.15,0,12.75,0,15.75.05l4.66,0h2.8a.78.78,0,0,0,.05-.18c.05-.18.09-.37.14-.56.27-1.19.64-2.55,1-4.21s.62-2.89.85-4.86c.07-.49.14-1,.23-1.63s.17-1.28.22-2,.14-1.62.22-2.58,0-2,.05-3.24l0,3.29a40.44,40.44,0,0,0-.66-9.91,58.26,58.26,0,0,0-2.95-9.92c.44,1.08,1.3,3.39,1.82,5.25s.83,3.24.64,2.31c-.52-2.06-.92-3.45-1.28-4.45s-.57-1.67-.81-2.25c-.48-1.16-.84-2.11-2.1-5.12l-.47-1.27c-1.3-3.06-2.63-6.2-3.88-9.44-.62-1.62-1.24-3.26-1.79-4.93s-1.14-3.36-1.65-5.08a46.33,46.33,0,0,1-1.31-5.22c-.29-1.74-.5-3.64.35-5.22s2.47-2.59,3.86-3.77a43.78,43.78,0,0,0,4.07-3.76c-.56.6-2.33,2.43.12,0a54.87,54.87,0,0,0,8.08-11.84c.58-1.08,1.13-2.18,1.64-3.29s1.05-2.22,1.57-3.34l1.43-3.41c.48-1.14.83-2.33,1.26-3.49a38.15,38.15,0,0,0,2.11-14.45,132.46,132.46,0,0,0-2-13.84c-.39-2.24-.78-4.49-1.07-6.75-.2-1.58-.35-2.93-.12-1.23-.7-6.94-.09-.35-.44-3.69-.21-2-.26-3.28-.28-3.78s0-.19.1,1.06c-.1-1.53-.2-3.23-.31-5.06s-.18-3.78-.27-5.81c-.19-4.07-.42-8.48-.57-12.91-.08-2.21-.1-4.43,0-6.61a21.31,21.31,0,0,1,1.05-6.25,15.25,15.25,0,0,1,3.15-4.94c1.26-1.4,2.55-2.63,3.7-3.78l-1.78,1.81c7.15-7.16,8-8.16,14.45-15l-1.22,1.32c3.76-4,7.51-8.21,11.15-12.51l2.7-3.24a36.12,36.12,0,0,0,2.53-3.37,26.29,26.29,0,0,0,1.94-3.72,29.07,29.07,0,0,0,1.28-3.93,71.08,71.08,0,0,0,1.3-8,23.92,23.92,0,0,1,1.86-7.36,12,12,0,0,1,2-3,15.15,15.15,0,0,1,2.71-2.18,28.2,28.2,0,0,1,6-2.59,16.89,16.89,0,0,1,4.57-1.05,3.69,3.69,0,0,1,1.6.29,2.61,2.61,0,0,1,1.2,1.19,12.1,12.1,0,0,1,.9,3.69c.29,2.58.47,5.13.7,7.11s.42,3.39.5,3.74a96.32,96.32,0,0,0,2.15,11.19c.35,1.4.77,3,1.46,5.19s1.61,5.18,2.69,9.46c.29,1.14.49,2.14.72,3.08s.41,1.84.57,2.77.38,1.89.5,3c.08.55.15,1.13.24,1.75s.09,1.3.15,2l-.05.15a56.06,56.06,0,0,1-.14,7.88c-.14,1.39-.32,2.79-.41,4.2a43.74,43.74,0,0,0,0,5.49,35.33,35.33,0,0,1,0-4.32,46.6,46.6,0,0,0,.34,6.88,59.71,59.71,0,0,0,1.31,6.67c.28,1,.51,2,.78,2.8l.71,2.22c.4,1.26.71,2,.71,2.07,2.35,6.33,5.25,12.43,8.17,18.5-.22-.39-1.68-3.45-2.82-5.87,4.65,9.74.76,1.81,5.09,10.7-.57-1.2.34.63.45.83,2.12,4.45,7,14.54,10.5,22.08l-.71-1.43c1.58,3.39,3.16,6.9,4.76,10.49s3.12,7.3,5,10.92a81.88,81.88,0,0,0,6.44,10.58,65.31,65.31,0,0,0,8.36,9.41,28.58,28.58,0,0,1-2.8-2.83c.16.13,1.25,1.28,3.08,3,.47.46.94.93,1.44,1.36,2.44,2.06-3.9-3.39,1.1.85,2.44,2,3.31,2.6,3.14,2.52s-1.31-.92-2.72-2.06c2,1.61,4.06,3.11,6.15,4.56.36.28-1.12-.74-1.51-1,1.28.91,4,2.76,6.8,4.82a36,36,0,0,1,6.82,6.28l.24.35a23,23,0,0,1,2.91,5c.36.83.66,1.67.94,2.49s.57,1.61.82,2.4c1,3.13,1.82,6,2.51,8.74,1.4,5.54,2.39,10.77,3.43,17.54.11.25.84,5.56,1.5,9.59.19,1.25.39,2.51.65,3.78a24.72,24.72,0,0,1,.52,3.86,50.41,50.41,0,0,1-.63,8.1l-.05.72s0,.09,0,.1h17.11c8.53,0,2.49-.05,6.33-.08.62.05,12.74,0,6.45.08l37-.05a24.9,24.9,0,0,1-3.08-.05h6c.1,0,.25.05.28,0l.13-.23.15-.29c.19-.35.28-.5.23-.39l-.43.83A15.64,15.64,0,0,0,539.8,475a38.34,38.34,0,0,0-1.12-8.37,170.33,170.33,0,0,0-5.14-16.45c-1.84-5.39-3.66-10.68-4.38-15.77-.17-1.27-.29-2.55-.43-3.78s-.33-2.43-.49-3.6c-.37-2.33-.79-4.52-1.28-6.53.07.3.16.6.22.9a64.93,64.93,0,0,0-2.45-8.2,50.2,50.2,0,0,0-3.78-7.68c-.52-.84-.85-1.42-1.09-1.76l-.34-.51.24.33c.14.2.34.49.52.8.77,1.22,1.67,2.66.15.16a64.18,64.18,0,0,0-7.82-9.85l-3.85-4a26.56,26.56,0,0,1-3.14-4.14,12.91,12.91,0,0,1-1.06-2.26l-.31-1.21c-.09-.4-.12-.82-.18-1.23a40.52,40.52,0,0,1,0-5,68.83,68.83,0,0,0-.32-10.74c-.14-1.47-.33-3.21-.64-5.17-.17-1-.34-2-.53-3.08s-.52-2.17-.8-3.32c-.14-.57-.29-1.15-.44-1.74s-.39-1.17-.58-1.76l-1.26-3.63c-.46-1.22-1-2.44-1.51-3.68s-1-2.51-1.61-3.74c-4.54-10-10.15-20-14-26.88l.42.81c-2.06-3.54-2.42-4.32-3.93-6.94.2.38,2.19,3.87.91,1.67-4.33-7.51-8.82-15.1-13.19-22.83s-8.94-15.55-11.21-24.28c-5-17.29-9.1-35-14.49-51.93-1-3.1-1.72-5.07-2.3-6.52s-1-2.4-1.48-3.44c-.22-.52-.49-1.05-.81-1.68s-.68-1.35-1.15-2.22-1-1.9-1.72-3.17c-.18-.32-.35-.65-.52-1a9.28,9.28,0,0,1-.48-1.11,4.07,4.07,0,0,1-.17-2.64,5.69,5.69,0,0,0,1,4.23,10.52,10.52,0,0,1-.93-2.2,4,4,0,0,1,.05-2.28,19.87,19.87,0,0,1,2.36-4.26l5.63-8.22a31.56,31.56,0,0,0,4.47-9,11.89,11.89,0,0,0,.32-5.07,10.82,10.82,0,0,0-2.06-4.64c-2-2.74-4.74-4.77-6.71-7.39a11.92,11.92,0,0,1-2.35-9.16,23.22,23.22,0,0,1,3.75-8.9,51.88,51.88,0,0,1,6.13-7.46c-.54.54-.79.85-1.14,1.23s-.78.84-1.58,1.79c.88-1,2.18-2.43,3.7-3.93s3.22-3.09,4.87-4.51a11.6,11.6,0,0,0,2.13-2.33,6.91,6.91,0,0,0,1-2.46,6.45,6.45,0,0,0,.06-1.82l-.08-.5a1.64,1.64,0,0,1,0-.18,8.68,8.68,0,0,0-.6-1.82c-.12-.3-.16-.36-.16-.38s.11.07-.53-1a17.79,17.79,0,0,0-2.5-3.08c-.5-.49-1-1-1.57-1.43-.27-.23-.55-.45-.83-.66l-.42-.32-.35-.24c-.39-1.7-.77-3.32-1.09-4.72s-.66-2.62-.85-3.41c-.12-.48.4,1.48.65,2.45-.22-.86-.6-2.29-1-3.9s-1-3.38-1.43-4.95c-1-3.13-1.75-5.4-1.23-3.77a175,175,0,0,0-10-24.19c-1.13-2.24-3.08-5.88-4.92-9.1L423.44,46c-.75-1.17-1.3-2-1.53-2.35.22.27-2-3.33-5-7.45s-6.72-8.73-8.75-11c1.39,1.51-3.51-4-1.89-2.22a94.1,94.1,0,0,0-8.63-8.54,72.88,72.88,0,0,0-15.07-10.9,34,34,0,0,0-7.47-3,17.27,17.27,0,0,0-6.44-.37,16.26,16.26,0,0,0-7.1,3.05,30,30,0,0,0-5.47,5.26c-3.2,3.86-5.8,8.06-8.56,12a68.4,68.4,0,0,1-4.36,5.72,22.25,22.25,0,0,1-5.29,4.65c-2,1.18-4.31,1.87-6.4,2.93s-4.2,2.08-6.25,3.17a91.42,91.42,0,0,1,9.38-4.59c.57-.24,1.16-.47,1.69-.72l.8-.37.74-.43a17.17,17.17,0,0,0,2.44-1.79,13.47,13.47,0,0,0,1.87-1.84,20.36,20.36,0,0,1-4.81,3.88c-1.72.91-3.6,1.52-5.25,2.35-3.38,1.56-6.44,3.21-9.47,4.9-6.06,3.38-11.93,7.07-19.7,11.06-2,1-1.46.71-.21.08s3.15-1.65,3.81-2a106.68,106.68,0,0,1-11.69,5.61c-1,.39-2,.73-3,1.09s-2,.75-3,1.19a34.83,34.83,0,0,0-5.41,3.2,63.76,63.76,0,0,0-9,8.28c-2.75,2.94-5.34,6-8,8.81l2.24-2.47c-1,1.15-2.27,2.45-3.2,3.45s-1.61,1.65-1.47,1.54c.7-.73,1.41-1.43,2.09-2.17,1.69-1.79-.33.52-3,3.16-.67.65-1.37,1.34-2.06,2l-2,1.76-2.28,1.84c1-.83.76-.65-.1,0s-2.35,1.72-3.7,2.82c-2.74,2.17-5,4.28-2,1.46a30.61,30.61,0,0,0-3,2.82c-1.06,1.08-1.7,1.86-1.85,2a8.22,8.22,0,0,1,1.18-1.41c-1.92,2-2.75,3.73-3.73,4.62A15.15,15.15,0,0,1,241.27,99c-1.36.92-2.64,1.77-6.73,4.67a3.2,3.2,0,0,1,.28-.22l.66-.48,1.56-1.12-15.18,10.85a15.4,15.4,0,0,1,1.66-1.22c-11.85,8.46-20.11,14.53-33.24,23.63,3.83-2.76-4.48,3.07-5.23,3.46-2.36,1.61-4.74,3.22-7.16,4.72,1-.6,2-1.18,2.92-1.82-.78.53-1.57,1-2.34,1.5l-1.15.72-1.17.65a23.63,23.63,0,0,1-4.85,1.83,71.41,71.41,0,0,1-9.75,1.69c1.85-.23,3.69-.49,5.52-.82-4.63.78-9.31,1.24-14,1.74,2.65-.27,5.3-.53,7.94-.84-7.56.89.82,0-9.14,1.06l-11.39,1.12h0l-13,1.45c-1.43.14,1.15-.22.21-.13-1.82.26-6.2.74-10.67,1.49a80.14,80.14,0,0,0-11.2,2.58c1.48-.45,1.55-.51,1.06-.37-1,.3-2,.6-2.93,1-1.65.57-2.59.91-3,1.11s-.45.16-.2,0c-2.43,1-3.41,1.49-3.75,1.66s0,0,.26-.09.49-.21-.07.06-1.91.86-4.64,2.34L94.76,160a173.75,173.75,0,0,0-15.62,9.34c-2.45,1.64-4.89,3.25-7.29,4.89l-3.59,2.43-3.5,2.52c-1.4,1,.64-.51,2.62-1.94s4-2.73,2.35-1.68a172.19,172.19,0,0,0-19.9,15.69,160.66,160.66,0,0,0-17,18.27l.91-1.18,1-1.14c-.72.85-2.51,3.23-4.8,6.16l-3.46,4.89c-1.14,1.75-2.3,3.53-3.35,5.26,1-1.69,1.34-2.23,1.06-1.77A109.94,109.94,0,0,0,16,237.1a53.35,53.35,0,0,0-3.25,9.54c-.32,1.76-.66,3.59-1,5.48s-.57,3.89-.88,5.94l.27-2c-.25,1.6-.53,3.45-.71,5.45-.1,1-.21,2-.32,3.09s-.14,2.13-.21,3.21-.15,2.16-.18,3.23,0,2.14-.06,3.18c-.08,2.07.05,4.05.07,5.79.08,2.08.43,6.06.27,3.64a100.54,100.54,0,0,0,2.22,15.64,103.44,103.44,0,0,0,4.46,14.53,139.86,139.86,0,0,0,6.13,13.42c2.21,4.32,4.58,8.51,6.69,12.79-1-2.05-2.54-4.82-1.68-3.22,1.26,2.4,2.5,4.81,3.57,7.3a28.12,28.12,0,0,1,2.25,7.75c-.08-.63-.15-1.16-.28-1.95a35.45,35.45,0,0,0-1-3.43,24.1,24.1,0,0,1,1.2,4.43,14.62,14.62,0,0,1-.12,6c.77-7.25.27.11-.87,3.11.14-.51-.11.54,0,.28-2.21,8.21-.27,1.41-3.23,12.63l.13-.6-3.23,12.62c-.54,1.87,1.13-4.48,1.16-4.78-1.64,6.37-3.15,12.59-4.7,18.34.69-2.71,1.69-6.6,2.38-9.31L22,400.85l.12-.46-2.82,10.78.73-2.75c-1.93,8-4.18,16.24-6.87,27,2.62-10.46.39-1.74.54-2.55-.72,2.73-1.82,6.9-1.53,5.71-1.31,5.08-2.18,8.46-4,15.64-.1.31-1.41,5.42-1.16,4.27-1.69,6.6.44-1.55.32-1-.92,3.54-1.94,7.51-3,11.8L2.55,476l-.45,1.73-.23.88-.12.43c0,.1,0,.1-.06.15l-.15.18A4.74,4.74,0,0,0,.76,481c-.09.3-.16.6-.25.89s-.09.27-.16.43-.23.42-.35.63l13.69,0,27.53-.13c4.08,0-3.34.07-3.34.07H55.62c-1.26,0,0,0,1.93.05,5,0,3.32-.07,9.89,0l-5,.08,17.73-.07c1.61,0-3.66.05-5.8.07,6.82,0,17.68,0,19.79-.09H89.81c2.49,0,1.28,0-.55.05-5.85,0-8.44,0-8.77,0h4.32c-4.44-.11-17.37,0-26.08,0l3.63-.08-8.93.07c-1.9,0-3.2-.07,1.1-.08l-10.89,0c-.59,0-.32,0,.23,0l-6.1,0a16.4,16.4,0,0,1,2.73-.05c-10.95,0-17.65.07-21.78,0h.92c-15.19,0-1.47.06-12.86.13l-6.37-.14a2.35,2.35,0,0,0,.21-.39c.08-.18.14-.37.2-.55a13.19,13.19,0,0,1,.37-1.44,3.75,3.75,0,0,1,.72-1.17c.13-.49.26-1,.37-1.43a7.42,7.42,0,0,1,.34-1.2c1.42-5.65-.28,1,.53-2.33,1.95-7.29,5.19-20.14,5.71-21.76.64-2.63-1.84,7,.15-.83.68-2.2,2.32-9,4.09-15.67-.48,2.06-2.14,8.37-.37,1.71,1-4.05,3.39-13,4.83-18.61,0-.08.19-.88.53-2.18s.8-3.13,1.34-5.23l3.69-14.28c.16-.61,4.65-17.76,6.94-26.53l0,.26c.18-.86.87-3.55,1.71-6.86.43-1.65.9-3.46,1.36-5.26a20.91,20.91,0,0,0,.88-5.36,15.61,15.61,0,0,1-.75,5.14c.29-1,.5-2.08.71-3.14L34,354A14.62,14.62,0,0,0,34,352.4,24.58,24.58,0,0,0,32,345c.22.49.44,1,.62,1.5A88.36,88.36,0,0,0,27,334.59c-2.19-4-4.54-8.35-6.84-13.32-.29-.55,3.56,8-1.34-2.55-.15-.41-.28-.82,1,1.95-.4-.91-1.48-3.22-2.2-5.09q.89,2.15,1.86,4.24c-1-2.28-1.26-2.88-1.47-3.37s-.39-.84-1.11-2.71c.06.06-1-2.77-.78-2.25.36,1,1.19,3.27,1.81,4.67a97.47,97.47,0,0,1-3.82-11.08c.11.37-.11,0-.93-3.17-.25-1-.46-1.85-.62-2.5s-.23-1.15-.31-1.51c-.14-.74-.18-1-.21-1.13s0-.13-.44-2.57c-.16-1-.52-2.86-.7-4.49s-.36-3-.4-3.07c-.23-2.48-.19-2.95-.26-3.91-.21-2.19-.31-7.34-.2-11.31s.38-6.77.18-4.3l-.07,1.13,0-.72v0a144.89,144.89,0,0,1,3.08-22c2-7.23,5.44-14,9-20.16v0c2.11-3.72,4.77-7.68,7.35-11.31,1.31-1.81,2.65-3.49,3.84-5.07s2.41-2.91,3.38-4.09a37.5,37.5,0,0,1,3.29-3.63l2.73-3c.77-.84,1.51-1.51,2.28-2.29,1.57-1.52,3.32-3.37,6.91-6.45-2.45,2.2-2,1.83-1.82,1.65l-.27.24c-.4.35-1.26,1.1-2.86,2.69,1.5-1.51,2.8-2.63,3.94-3.63l3.13-2.78c1-.9,2.1-1.71,3.33-2.73s2.64-2.18,4.46-3.56c-1.25.93.06,0,2.08-1.45s4.76-3.45,6.45-4.57c-1.66,1.09-3.28,2.25-4.89,3.4l2.68-1.94,2.61-1.77,5.06-3.4L74.14,173c7.24-4.81,13.81-9.12,20.29-12.53a65.15,65.15,0,0,1,19.51-6.72c2.25-.44-.07,0-2.44.46l-3,.7c-.64.19-.75.19.24-.09a141.23,141.23,0,0,1,18.58-3c10.91-1.19,10.17-1.22,21.59-2.37-1.47.12-2.85.21,5.68-.69,8-.83,9.8-1,4.78-.39l-2.75.29c-2.58.28-6,.63-2.8.33l1-.13c2-.19,5.72-.58,8.62-1s5-.78,3.72-.53c3-.55,3.61-.78,3-.61s-2.61.55-4.84.86c5.07-.76,9.12-1.68,12.59-3.91s6.83-4.45,11.2-7.43c-1.39,1-2.69,1.79-1.3.85,12.76-8.84,5.59-3.93,14.18-10,4.9-3.43-1.69,1.31,6.92-4.84,5.28-3.73,1.16-.74-.93.76l19.18-13.63-4.12,3,6.55-4.69-2.39,1.65,3.16-2.24,1-.67.34-.23c2.49-1.8-2,1.29,3-2.26,1.63-1.14,4.1-2.9,6.35-4.38a17.72,17.72,0,0,0,2.89-2.25,14.65,14.65,0,0,0,1.39-1.64,12.63,12.63,0,0,1-2.44,2.63c-.68.51-1.11.82-1.37,1-.52.35-.32.23-.07.07.52-.31,1.17-.76-3.18,2.21.83-.59,1.77-1.21,2.81-1.91a16.61,16.61,0,0,0,3.25-2.61c.31-.34-.26.36-.89.9a14.82,14.82,0,0,0,2.43-2.84c.58-.8,1.08-1.38,1.49-1.86.84-.93,1.34-1.42,1.84-1.92a64.87,64.87,0,0,1,7-5.8,36.2,36.2,0,0,0,3.87-3c-.93.84-1.56,1.3-1.87,1.54s-.31.23-.08,0c.48-.36,1.85-1.54,3.55-3.09,1.46-1.36,2.56-2.42,3.42-3.33s1.53-1.6,2.11-2.22c1.15-1.23,1.95-2.15,3.35-3.69-1.07,1.17-2.12,2.35-3.22,3.5,1.1-1.18,3.72-4.18,7.47-8.25.33-.34-3.38,3.72-2,2.27a86.35,86.35,0,0,1,7.22-7.37A36.42,36.42,0,0,1,290,55.3c3.7-1.41.35-.11,3.65-1.29a97.52,97.52,0,0,0,9.24-4.08c2.38-1.21,4.81-2.46,9.19-5-2.56,1.38-3,1.68,3.17-1.91-4.79,2.78-9.61,5.54-14.6,8,3.2-1.55,6.32-3.28,9.41-5-4.37,2.48-9.32,5-12.09,6.22,2.31-1.05,3.33-1.58,3.51-1.68s-.48.23-1.57.73c6.24-2.88,12-6.42,18.9-10.33l-.15.22c5.19-2.94,9.81-5.54,15-7.88a44.18,44.18,0,0,0,4-1.81,18.53,18.53,0,0,0,3.75-2.84,53.93,53.93,0,0,0,6.68-8.24q-1.42,2-2.95,4c.62-.84,2.05-2.76,3.6-5.05s3.29-4.88,4.76-6.91c-.24.4,1.58-2.14,3-3.74a32,32,0,0,1,4-4.07,19.94,19.94,0,0,1,3.56-2.45,20.69,20.69,0,0,1,2.38-1,14.74,14.74,0,0,1,6.76-.52c.76.16,1.48.25,2.15.45s1.32.35,1.91.57l1.69.63,1.5.66c1,.42,1.81.9,2.64,1.31l2.32,1.32,2.25,1.42c.75.5,1.52,1,2.36,1.64s1.7,1.28,2.68,2,2,1.61,3.12,2.61c-1.38-1.18-1.06-.84-1.13-.9a8.82,8.82,0,0,1-.72-.56c-.52-.42-1.42-1.17-3-2.37,1.61,1.2,3.06,2.43,4.15,3.32l1.28,1.12.5.42c.44.39,1.17,1,2.05,1.88s1.92,1.81,3,2.86c2.1,2.07,4.2,4.37,5.41,5.77.57.62.95,1,1.54,1.73s1.45,1.62,2.84,3.39c.3.39,0,0,0,0s1.13,1.37,1.91,2.37,1.25,1.62.08,0a178.93,178.93,0,0,1,12.77,19.41A162.84,162.84,0,0,1,436,71.5a176.37,176.37,0,0,1,8.39,25.89c-.12-.5,0,0-.37-1.48.69,3,1.12,4.83,1.42,6.15a23.31,23.31,0,0,1,3.47,2.86,16.39,16.39,0,0,1,2,2.43,11.1,11.1,0,0,1,1.1,2,7.27,7.27,0,0,1,.58,2.9,6.74,6.74,0,0,1-.11,1,3.55,3.55,0,0,1-.14.55c-.08.24-.09.27-.06.15a6.15,6.15,0,0,0,.25-2.08,7.41,7.41,0,0,0-.58-2.48c-.23-.5-.24-.57.12.34a7.43,7.43,0,0,1,.38,3.1,6.33,6.33,0,0,1-.9,2.5,10.16,10.16,0,0,1-2.11,2.39,80.33,80.33,0,0,0-10,10.16c.42-.54.84-1.08,1.29-1.59A34.61,34.61,0,0,0,434.6,136a15.7,15.7,0,0,0-1.05,6.93,9.13,9.13,0,0,0,.33,1.84,8.54,8.54,0,0,0,.6,1.81,14.66,14.66,0,0,0,2.11,3.28s-.34-.39-.06,0c1.15,1.4,2.78,2.88,4.47,4.63s3.41,3.93,3.82,6.7a14.38,14.38,0,0,1-1.53,8.13,45,45,0,0,1-4.1,6.92c1.73-2.62,2.49-3.84,1.42-2.26-2.52,3.76.84-1-4.26,6.42-.84,1.2-2.23,3.12-3.32,4.93a9.64,9.64,0,0,0-1.14,2.59,4.45,4.45,0,0,0-.11.55c0,.17,0,.32,0,.46a2.3,2.3,0,0,0,0,.59,5.76,5.76,0,0,1-.05-1.1c.08-.36.14-.72.25-1.07s.26-.67.41-1l.51-1c.72-1.23,1.51-2.41,2.31-3.59-.62.9-1.33,1.91-2,3a8.52,8.52,0,0,0-1.49,3.85,8.31,8.31,0,0,0,1.31,3.92c.63,1.17,1.26,2.26,1.77,3.26l-.3-.49c.78,1.43,1.41,2.71,2,3.86s1,2.19,1.36,3.16l1,2.68.87,2.45c1.1,3.24,2.21,6.62,4.14,13.36l-.38-1.4c2.17,7.36,1.71,6.2,3.78,13.56l.53,2.26c1.35,4.87,4.58,17.12,7.16,25.82-1.53-4.91-4.31-15.16-6-21.5,1.29,4.85,4.43,16.46,5.21,19-.55-2-1.26-4.39-1.77-6.32q1.25,4.44,3,10.26l.93,3c.33,1,.77,2,1.16,3.09s.94,2.1,1.42,3.19,1,2.18,1.6,3.29a30.09,30.09,0,0,0,1.52,3.08c1.17,2.18,2.84,5.3,4.74,8.62,3.77,6.65,8.21,14.21,10,17.38,4.45,7.63,8.81,15.24,13,23.33,2.1,4.05,4.19,8.21,6.17,12.58.52,1.08,1,2.2,1.44,3.33s.93,2.26,1.41,3.4.82,2.35,1.25,3.53a31.41,31.41,0,0,1,1.14,3.64c-.39-1.78-.64-2.27-.55-2.09s.13.37.27.74l.37,1.43c.28,1.09.6,2.37.84,3.29s.3,1.52.28,1.2c.21,1.18.38,2.18.53,3s.21,1.53.28,2.08l.24,1.87.29,3.62c0,1.2.12,2.41.1,3.62,0,2.42-.16,4.83-.19,7.27.06,1.74-.06.58,0-.94s.11-3.41.08-3.19c-.09,2.62-.16,4.22-.09,5.25s.15,1.47.16,1.8.12.55.25,1.12l.13.5.26.64c.1.25.21.53.35.85s.36.65.58,1c-.32-.66.07.22,1.21,1.68a15.36,15.36,0,0,0,1,1.21c.38.43.76.91,1.21,1.38l2.94,3.06a55.58,55.58,0,0,1-5.58-6.36,61.72,61.72,0,0,0,5.61,6.29c.74.75,1.37,1.43,1.93,2.08s1.11,1.22,1.6,1.85c1,1.22,2,2.47,3.22,4.19a51.81,51.81,0,0,1,4.29,7.24c-.32-.7-.69-1.38-1.07-2.06s-.75-1.36-1.17-2a45.53,45.53,0,0,1,3.43,6.83,58.67,58.67,0,0,1,2.9,9.59,95.77,95.77,0,0,1,1.58,9.9c.17,1.52.34,3,.59,4.24s.52,2.37.76,3.28c.34,1.3.76,3-.11-.21,2.25,8.84,6.45,18.1,8.68,27.41,1.08,4.62,1.72,9.4.45,13.55a14.61,14.61,0,0,1-.57,1.48l-.36.7c-.19.32,0,.25-.4.25h-3.06l-5.65,0,1.38,0c-3.39,0-5.9.06-10.14,0,.22,0,1.37,0-.2,0l-13.48,0,3.83,0-22.07,0-19.79.07c0-.1.11-.79.27-2.06a42.63,42.63,0,0,0,.48-5.54,21.15,21.15,0,0,0-.27-3.41c-.2-1.16-.45-2.27-.62-3.41-.38-2.24-.67-4.4-.92-6.12l.05.24a194.3,194.3,0,0,0-5.33-27.11c-.58-2.07-1.23-4.1-1.92-6.13a35.66,35.66,0,0,0-2.5-6c-2.13-3.87-5.55-7-9.42-9.78-2.37-1.78-5.72-3.95-9.37-6.76A64.88,64.88,0,0,1,427.72,396a76.27,76.27,0,0,1-8.89-14c-2.44-4.93-4.43-9.9-6.42-14.22,1.19,2.66-.26-.41-1.66-3.49-1.84-4.07-5.29-11.16-4.92-10.56l.68,1.45c-1.35-3.09-5.37-11.35-8.5-17.8l-.6-1c-2-4.24-4.33-9.13-6.53-14.32a85.1,85.1,0,0,1-5.27-16.22,47.61,47.61,0,0,1-.85-8.06c0-2.6.25-5.07.44-7.35a52.5,52.5,0,0,0-.07-11A94.07,94.07,0,0,0,382,265.18l.12.21c-.89-3-1.72-5.62-2.42-8.11s-1.27-4.86-1.76-7.34-.91-5.07-1.26-8c-.17-1.47-.33-3-.48-4.7s-.28-3.46-.61-5.39c.2,1.05.32,2.1.44,3.15a16.58,16.58,0,0,0-1.14-5.5,2.94,2.94,0,0,0-1.78-1.55,5.34,5.34,0,0,0-2.13-.12,21,21,0,0,0-4,1.06,34.57,34.57,0,0,0-4.79,2,18.89,18.89,0,0,0-2.14,1.21,12.59,12.59,0,0,0-3.83,4.31,18.61,18.61,0,0,0-1.75,5.52c-.65,3.79-.86,7.63-1.93,11.28a25.24,25.24,0,0,1-2.13,5.25,27.58,27.58,0,0,1-3.27,4.62q-3.62,4.41-7.34,8.67c.16-.2.43-.55,2-2.41-2.34,2.72-7,7.87-10.94,12s-7.12,7.32-6.15,6.44a5.73,5.73,0,0,0-.54.51l-1.36,1.35c-1.14,1.15-2.73,2.69-4.42,4.51a14.93,14.93,0,0,0-3.91,6.77,32.36,32.36,0,0,0-.67,7.2l0-1.29c0,3.49.1,5.28.18,7.42s.21,4.62.44,9.47c.1,2.3.05,2-.08-1,.36,7.66.22,6,.82,15.25-.14-1.15-.18-2.3-.27-3.45A107.19,107.19,0,0,0,316,346c.37,2.45,1,6.14,1.55,9.36.28,1.61.49,3.11.67,4.27s.22,2,.25,2.3c.11.52.2,1.86.31,3.64,0,.89,0,1.9,0,3s-.15,2.21-.37,3.35c-.06.31,0,0,.05-.4s.1-1.08.15-1.5l-.12,1.21c-.05.39-.14.77-.2,1.15-.15.76-.28,1.49-.41,2.21-.4,1.39-.69,2.73-1.11,3.95s-.81,2.4-1.22,3.5l-1.3,3.14c-.86,2-1.78,3.86-2.68,5.74s-1.93,3.71-3.14,5.62c-.12.18-.43.66-.85,1.28a97.45,97.45,0,0,0,8.1-16.15s-3.3,7.77-.78,1.55c-.33.78-.67,1.63-1.05,2.54s-.85,1.83-1.3,2.82c-.91,2-1.95,4.07-3.13,6.14a46.36,46.36,0,0,1-8.31,11c-.28.28-.58.53-.81.72l.63-.57c-1.39,1.29-2.73,2.32-4,3.36a8.7,8.7,0,0,0-2.36,2.61,6.56,6.56,0,0,0-.62,3.39,25.22,25.22,0,0,0,1.07,5.69c.74,2.75,1.79,5.81,2.48,7.81-.08-.34,1.8,4.86.09,0,.22.64-.28-.75-1.17-3.41-.19-.61-.42-1.32-.55-1.72l.09.27c-.4-1.32-.87-2.85-1.29-4.57a16.35,16.35,0,0,1-.59-5.75,15.2,15.2,0,0,0,.51,5.25c.42,1.83,1,3.79,1.69,6,.71,2,1.52,4.29,2,5.55,1.87,5.48,6.36,15.68,6.78,17.17a56.1,56.1,0,0,1,2.93,9.82,44.75,44.75,0,0,1,.57,10.63c-.07.86-.14,1.72-.2,2.57s-.24,1.67-.35,2.48c-.2,1.63-.54,3.18-.84,4.63s-.61,2.82-.9,4.06c-.07.31-.15.62-.21.91s-.2.19-.53.22l-1.62,0c-3.67,0-4.22,0-5.59,0l5.78,0c-7.33,0-21.71,0-23.46.08-9.23,0,5.19-.07-7.5-.06l1.72,0c-25-.12-40.59.19-68.26,0l3.27,0H148.77a4,4,0,0,1-.63,0l-.08-.67-.11-.75a26.9,26.9,0,0,0-.65-3,31.94,31.94,0,0,0-2.19-5.62,55.61,55.61,0,0,0-3-5.19q-1.6-2.52-3.12-5.07-3-5.1-5.77-10.26c-2.09-3.89-3.2-6.08-4.13-7.87s-1.65-3.21-2.85-5.63l-.79-1.75c-1.35-2.76-2.69-5.54-4-8.32-2.77-5.94-5-11.14-7.41-16.76a40.24,40.24,0,0,0-4.6-8.49,15,15,0,0,0-3.9-3.74,7.66,7.66,0,0,0-5.76-1.07,7.12,7.12,0,0,1,2.16-.1,8.78,8.78,0,0,0-5.22,1.38,20.77,20.77,0,0,0-4.62,4,54.38,54.38,0,0,0-3.84,5c-.33.51-1,1.66-2.21,3.67l-.11.14A105.09,105.09,0,0,0,79.81,426c-2,5.3-1.79,4.91-1.92,5.08s-.15.35-.54,1.56c-.2.61-.46,1.46-.78,2.67-.16.61-.34,1.3-.48,2.12a13.69,13.69,0,0,0,0,2.81,8.19,8.19,0,0,0,.53,2.5A13,13,0,0,0,78,445.21c1.08,1.57,2.26,3.09,3.24,4.43,2,2.67,3.29,4.51,2.63,3.56-1.42-2-3.7-5.15-3.78-5.32l3.31,4.55c.34.38,1.15,1.45.88,1s-1.6-2.41-5.63-8a10.49,10.49,0,0,1-2-4.2,15.47,15.47,0,0,1-.18-2.37,8.09,8.09,0,0,1,.26-2.34c.24-1,.53-2,.84-3a35.88,35.88,0,0,0-1,3.9,9.28,9.28,0,0,0-.07,2,12.77,12.77,0,0,0,.18,2,18.74,18.74,0,0,1-.18-3.1,14.47,14.47,0,0,1,.47-2.62c.42-1.65.87-3.12,1.37-4.67l1.4-3.77q1.62-4.42,3.59-8.72c.53-1-1.75,3.85,1-1.84,2-3.95-2,3.72,1.32-2.78,1.13-2,1.58-2.68,2.06-3.46s1-1.64,2.57-3.83c.48-.58-.23.31-1.41,2.09a36,36,0,0,1,5.34-6.49,16.28,16.28,0,0,1,3.16-2.32,9.82,9.82,0,0,1,2.5-1,7.21,7.21,0,0,1,4.34.43,11.64,11.64,0,0,1,4.09,3.17,22.83,22.83,0,0,1,3.22,4.87c.84,1.25,3.57,7.66,5.37,11.69-1.67-3.67,0,.12,2,4.57s4.39,9.54,3.88,8.6c1.31,2.68,3.64,7.55,6.36,12.87s5.82,11.09,8.53,15.64l-1.36-2.32c3,5.17,3.88,6.64,5.9,9.9a39.68,39.68,0,0,1,3,5.09,28.81,28.81,0,0,1,2.71,8.6c0,.23.05.44.07.64s0,.31.08.35h1.12a3.63,3.63,0,0,1,.51,0l-.49,0h-1.23s0-.07,0-.11c0-.26-.07-.53-.1-.81s-.07-.45-.1-.67c-.08-.43-.16-.84-.23-1.16-.15-.64-.24-.93-.13-.38a11.65,11.65,0,0,1,.36,1.74l.12.9.05.41v.11s.07,0,.1,0h3c2.91,0,5.55,0,4.31-.06,5.58.05,4.81,0,7.68.09,1-.1,5.2,0,9.83-.08,8.08.05,2.08.09,10.95.06C187.91,483.16,180,483.2,180,483.2Zm122.91-78.87h0a36.79,36.79,0,0,1-3.17,3A36.14,36.14,0,0,0,302.93,404.33Zm9.63-14.87a73.88,73.88,0,0,1-3.64,6.79c-.35.52,0-.05.9-1.6a15.09,15.09,0,0,0,.79-1.37C311.2,392.17,312,390.67,312.56,389.46Zm-17.62,30.93a25.45,25.45,0,0,1-.84-4.07,36.14,36.14,0,0,0,1.07,4.82l.1.32Z"></path><path class="cls-4" d="M296.46,425.22l.37,1.09c-.18-.54-.34-1.06-.51-1.59l-.32-1C296.16,424.26,296.32,424.76,296.46,425.22Z"></path><path class="cls-4" d="M10.18,267.12l0-.37,0,.78Z"></path><polygon class="cls-4" points="384.93 282.84 384.94 282.82 384.82 281.28 384.93 282.84"></polygon><path class="cls-4" d="M32.63,360c-.05.18-.15.53-.34,1.23C32.31,361.19,32.45,360.66,32.63,360Z"></path><path class="cls-4" d="M22,400.85l-1.51,5.77C21.17,404.12,21.65,402.3,22,400.85Z"></path><path class="cls-4" d="M13.87,432.25l-.14.62,0-.07Z"></path><path class="cls-4" d="M268.67,73.16l.84-.92C271.47,70.05,270.14,71.54,268.67,73.16Z"></path><path class="cls-4" d="M140.53,150.08l4.9-.53-3.44.35C141.11,150,140.56,150.06,140.53,150.08Z"></path><path class="cls-4" d="M406.29,22.94v0l.71.79Z"></path><path class="cls-4" d="M152.53,148.83l-7.1.72Z"></path><path class="cls-4" d="M88.41,483h0Z"></path><path class="cls-4" d="M90.15,483h0Z"></path><path class="cls-4" d="M95.59,483l-3.7,0Z"></path><path class="cls-4" d="M45.46,483,45,483A3.76,3.76,0,0,0,45.46,483Z"></path><path class="cls-4" d="M32.41,483l12.15,0,.41,0Z"></path><path class="cls-4" d="M6.55,461.48,3.79,472.06c.5-1.84,1.16-4.27-.08.55C7.23,459.28,3,475.35,6.55,461.48Z"></path><path class="cls-4" d="M15.08,428.66c-1.46,5.69.05-.05,0,.25C16,425.3,16.2,424.42,15.08,428.66Z"></path><path class="cls-4" d="M41.78,199.53l-.36.47C44.49,196.67,41.43,200,41.78,199.53Z"></path><polygon class="cls-4" points="78 170.03 74.32 172.44 72.6 173.66 78 170.03"></polygon><path class="cls-4" d="M102.32,157c-.63.21-1.22.5-1.83.74,1.15-.51,2.33-.92,3.52-1.34s2.39-.76,3.59-1.12c-.89.26-1.79.5-2.66.79Z"></path><path class="cls-4" d="M432.13,62.83l-.54-1.25C430.22,58.84,429.88,58.29,432.13,62.83Z"></path><path class="cls-4" d="M443.37,219.38l2.69,9.65C445,225.17,444,221.33,443.37,219.38Z"></path><path class="cls-4" d="M393.68,328.31l1.52,3.23c-1-2-1.9-4.07-2.83-6.11Z"></path></g></g></g></svg>